<svg width="20" height="20" viewBox="0 0 20 20" fill="none" xmlns="http://www.w3.org/2000/svg">
<g clip-path="url(#clip0_327_148)">
<path d="M1.38889 0H18.6111C19.3778 0 20 0.622222 20 1.38889V18.6111C20 19.3778 19.3778 20 18.6111 20H1.38889C0.622222 20 0 19.3778 0 18.6111V1.38889C0 0.622222 0.622222 0 1.38889 0ZM17.7778 17.7778V2.22222H2.22222V17.7778H17.7778ZM10 5.55556C10 4.33333 9 3.33333 7.77778 3.33333C6.55556 3.33333 5.55556 4.33333 5.55556 5.55556C5.55556 6.77778 6.55556 7.77778 7.77778 7.77778C9 7.77778 10 6.77778 10 5.55556ZM13.3333 11.1111C13.3333 11.1111 13.3333 4.44444 16.6667 4.44444V15.5556C16.6667 16.1667 16.1667 16.6667 15.5556 16.6667H4.44444C3.83333 16.6667 3.33333 16.1667 3.33333 15.5556V7.77778C5.55556 7.77778 6.66667 12.2222 6.66667 12.2222C6.66667 12.2222 7.77778 8.88889 10 8.88889C12.2222 8.88889 13.3333 11.1111 13.3333 11.1111Z" fill="black"/>
</g>
<defs>
<clipPath id="clip0_327_148">
<rect width="20" height="20" fill="white"/>
</clipPath>
</defs>
</svg>
