<svg width="20" height="20" viewBox="0 0 20 20" fill="none" xmlns="http://www.w3.org/2000/svg">
<g clip-path="url(#clip0_328_159)">
<path d="M9.5 4V9.2H4.5V4H2V17H4.5V11.8H9.5V17H12V4H9.5Z" fill="black"/>
<path d="M14.4219 16.1035C14.9414 15.6738 15.3887 15.2812 15.7637 14.9258C16.1387 14.5664 16.4551 14.2383 16.7129 13.9414C16.9746 13.6445 17.1836 13.373 17.3398 13.127C17.5 12.8809 17.623 12.6562 17.709 12.4531C17.7949 12.25 17.8516 12.0645 17.8789 11.8965C17.9102 11.7246 17.9258 11.5645 17.9258 11.416C17.9258 11.1816 17.8887 10.9727 17.8145 10.7891C17.7402 10.6016 17.6387 10.4434 17.5098 10.3145C17.3848 10.1816 17.2383 10.082 17.0703 10.0156C16.9023 9.94531 16.7266 9.91016 16.543 9.91016C16.3672 9.91016 16.1973 9.9375 16.0332 9.99219C15.873 10.043 15.7207 10.1094 15.5762 10.1914C15.4355 10.2695 15.3047 10.3574 15.1836 10.4551C15.0664 10.5527 14.9629 10.6484 14.873 10.7422C14.7793 10.5977 14.7012 10.4648 14.6387 10.3438C14.5762 10.2227 14.5254 10.1172 14.4863 10.0273C14.4434 9.92578 14.4102 9.83203 14.3867 9.74609C14.4453 9.69141 14.5391 9.61719 14.668 9.52344C14.8008 9.42969 14.9648 9.33789 15.1602 9.24805C15.3594 9.1582 15.5879 9.08008 15.8457 9.01367C16.1074 8.94727 16.3984 8.91406 16.7188 8.91406C17.082 8.91406 17.4121 8.96875 17.709 9.07812C18.0059 9.1875 18.2578 9.34375 18.4648 9.54688C18.6758 9.74609 18.8379 9.98828 18.9512 10.2734C19.0645 10.5586 19.1211 10.877 19.1211 11.2285C19.1211 11.4512 19.1055 11.6719 19.0742 11.8906C19.043 12.1094 18.9844 12.334 18.8984 12.5645C18.8125 12.7949 18.6934 13.0352 18.541 13.2852C18.3926 13.5312 18.1992 13.7969 17.9609 14.082C17.7227 14.3633 17.4355 14.6641 17.0996 14.9844C16.7637 15.3047 16.3672 15.6523 15.9102 16.0273C16.0977 16.0273 16.2891 16.0254 16.4844 16.0215C16.6836 16.0137 16.8809 16.0059 17.0762 15.998C17.2715 15.9863 17.4629 15.9766 17.6504 15.9688C17.8379 15.957 18.0137 15.9453 18.1777 15.9336C18.5645 15.9102 18.9453 15.8848 19.3203 15.8574C19.3203 15.8926 19.3223 15.9316 19.3262 15.9746C19.3301 16.0098 19.332 16.0488 19.332 16.0918C19.3359 16.1309 19.3379 16.1719 19.3379 16.2148C19.3379 16.332 19.3262 16.4629 19.3027 16.6074C19.2793 16.748 19.2324 16.8789 19.1621 17H14.4219V16.1035Z" fill="black"/>
</g>
<defs>
<clipPath id="clip0_328_159">
<rect width="20" height="20" fill="white"/>
</clipPath>
</defs>
</svg>
