<svg width="20" height="20" viewBox="0 0 20 20" fill="none" xmlns="http://www.w3.org/2000/svg">
<path d="M9.5 4V9.2H4.5V4H2V17H4.5V11.8H9.5V17H12V4H9.5Z" fill="black"/>
<path d="M16.2598 10.2246C16.166 10.2676 16.0508 10.3125 15.9141 10.3594C15.7812 10.4062 15.6484 10.4473 15.5156 10.4824L15.4102 10.4707C15.3203 10.4199 15.248 10.3516 15.1934 10.2656C15.1426 10.1758 15.1016 10.0879 15.0703 10.002C15.0352 9.90039 15.0117 9.79492 15 9.68555C15.2227 9.59961 15.4277 9.51758 15.6152 9.43945C15.8027 9.35742 15.9648 9.2832 16.1016 9.2168C16.2617 9.14258 16.4102 9.07031 16.5469 9H17.5195V17.0332H16.2598V10.2246Z" fill="black"/>
</svg>
